# Blender 4.3.2
# www.blender.org
mtllib jikeng_try8.0.mtl
o Cube
v 29.999998 9.600000 -14.999999
v 29.999998 -9.600000 -14.999999
v 29.999998 9.600000 14.999999
v 29.999998 -9.600000 14.999999
v -29.999998 9.600000 -14.999999
v -29.999998 -9.600000 -14.999999
v -29.999998 9.600000 14.999999
v -29.999998 -9.600000 14.999999
v -28.999998 9.600000 13.999999
v -28.999998 9.600000 -13.999999
v -23.999998 9.600000 -13.999999
v -23.999998 9.600000 13.999999
v -23.999998 -9.600000 -13.999999
v -28.999998 -9.600000 13.999999
v -28.999998 -9.600000 -13.999999
v -23.999998 -9.600000 13.999999
vn -0.0000 1.0000 -0.0000
vn -0.0000 -0.0000 1.0000
vn -1.0000 -0.0000 -0.0000
vn -0.0000 -1.0000 -0.0000
vn 1.0000 -0.0000 -0.0000
vn -0.0000 -0.0000 -1.0000
vt 0.870833 0.508333
vt 0.875000 0.500000
vt 0.875000 0.750000
vt 0.870833 0.741667
vt 0.625000 0.750000
vt 0.625000 0.500000
vt 0.850000 0.508333
vt 0.850000 0.741667
vt 0.375000 0.750000
vt 0.625000 1.000000
vt 0.375000 1.000000
vt 0.375000 0.000000
vt 0.625000 0.000000
vt 0.625000 0.250000
vt 0.375000 0.250000
vt 0.129167 0.741667
vt 0.125000 0.750000
vt 0.125000 0.500000
vt 0.129167 0.508333
vt 0.375000 0.500000
vt 0.150000 0.741667
vt 0.150000 0.508333
vt 0.000000 0.000000
s 0
usemtl Material
f 10/1/1 5/2/1 7/3/1 9/4/1
f 9/4/1 7/3/1 3/5/1 1/6/1 5/2/1 10/1/1 11/7/1 12/8/1
f 4/9/2 3/5/2 7/10/2 8/11/2
f 8/12/3 7/13/3 5/14/3 6/15/3
f 14/16/4 8/17/4 6/18/4 15/19/4
f 6/18/4 2/20/4 4/9/4 8/17/4 14/16/4 16/21/4 13/22/4 15/19/4
f 2/20/5 1/6/5 3/5/5 4/9/5
f 6/15/6 5/14/6 1/6/6 2/20/6
f 15/23/5 10/23/5 9/23/5 14/23/5
f 13/23/2 11/23/2 10/23/2 15/23/2
f 12/23/3 11/23/3 13/23/3 16/23/3
f 9/23/6 12/23/6 16/23/6 14/23/6
